<svg width="820" height="140" viewBox="0 0 820 140" fill="none" xmlns="http://www.w3.org/2000/svg">
<path d="M708.44 137.971V0H728.869V57.6232H799.571V0H820V137.971H799.571V76.6957H728.869V137.971H708.44Z" fill="#393939"/>
<path d="M619.459 137.971V18.8696H576.597V0H682.75V18.8696H639.888V137.971H619.459Z" fill="#393939"/>
<path d="M497.973 140C464.926 140 443.495 120.522 443.495 83.3913V0H463.924V82.1739C463.924 107.942 475.541 121.13 497.973 121.13C520.405 121.13 532.022 107.942 532.022 82.1739V0H552.452V83.3913C552.452 120.522 531.021 140 497.973 140Z" fill="#393939"/>
<path d="M261.391 137.971V0H297.443L337.3 126.203L376.957 0H412.008V137.971H391.979V14L352.722 137.971H320.276L281.019 14.4058V137.971H261.391Z" fill="#393939"/>
<path d="M140.084 137.971V0H231.616V18.8696H160.513V58.029H226.008V76.4928H160.513V119.101H231.616V137.971H140.084Z" fill="#393939"/>
<path d="M0 137.971V0H43.2622C81.9177 0 111.761 24.5507 111.761 68.9855C111.761 113.42 81.9177 137.971 43.2622 137.971H0ZM20.4294 119.101H41.6599C71.703 119.101 90.7304 100.435 90.7304 72.4348V65.5362C90.7304 37.5362 71.703 18.8696 41.6599 18.8696H20.4294V119.101Z" fill="#393939"/>
</svg>
