<svg width="820" height="140" viewBox="0 0 820 140" fill="none" xmlns="http://www.w3.org/2000/svg">
<path d="M671.217 138V2H706.83L746.202 126.4L785.376 2H820V138H800.215V15.8L761.436 138H729.385L690.606 16.2V138H671.217Z" fill="#393939"/>
<path d="M628.517 138V2H648.698V138H628.517Z" fill="#393939"/>
<path d="M495.78 138V2H515.961V58.8H585.802V2H605.982V138H585.802V77.6H515.961V138H495.78Z" fill="#393939"/>
<path d="M420.466 140C384.062 140 356.758 113.8 356.758 70C356.758 26.2 384.062 0 420.466 0C453.309 0 474.479 21.2 478.238 49.6H457.662C454.496 30 439.855 18.6 420.268 18.6C394.943 18.6 377.533 37.4 377.533 66.6V73.4C377.533 102.6 394.943 121.4 420.268 121.4C439.855 121.4 454.496 110 457.662 90.4H478.238C474.479 118.6 453.309 140 420.466 140Z" fill="#393939"/>
<path d="M308.285 2L354.384 138H333.214L320.156 98.8H263.571L250.711 138H229.541L275.838 2H308.285ZM269.705 80.2H314.023L299.382 35.8L292.062 12.4H291.666L284.345 35.8L269.705 80.2Z" fill="#393939"/>
<path d="M164.441 140C127.641 140 101.525 112.2 101.525 70C101.525 27.8 127.641 0 164.441 0C201.241 0 227.555 27.8 227.555 70C227.555 112.2 201.241 140 164.441 140ZM122.299 73.4C122.299 102.6 139.512 121.4 164.441 121.4C189.37 121.4 206.781 102.6 206.781 73.4V66.6C206.781 37.4 189.37 18.6 164.441 18.6C139.512 18.6 122.299 37.4 122.299 66.6V73.4Z" fill="#393939"/>
<path d="M84.4818 94.8C84.4818 123.2 69.6431 140 42.5377 140C17.6086 140 0 126.2 0 94.4H19.3893C19.3893 112.4 27.3032 121.4 42.3398 121.4C56.9807 121.4 64.3011 112.8 64.3011 94.4V2H84.4818V94.8Z" fill="#393939"/>
</svg>
